<svg width="12" height="12" viewBox="0 0 12 12" fill="none" xmlns="http://www.w3.org/2000/svg">
<path d="M8.25 1C7.00736 1 6 2.00736 6 3.25C6 4.49264 7.00736 5.5 8.25 5.5C9.49264 5.5 10.5 4.49264 10.5 3.25C10.5 2.00736 9.49264 1 8.25 1Z" fill="#AE984E"/>
<path d="M6.0159 0.889629C5.39027 1.48199 5 2.32042 5 3.25C5 3.84855 5.1618 4.4093 5.44406 4.89091C5.22545 4.96173 4.9922 5 4.75 5C3.50736 5 2.5 3.99264 2.5 2.75C2.5 1.50736 3.50736 0.5 4.75 0.5C5.21941 0.5 5.65525 0.643749 6.0159 0.889629Z" fill="#AE984E"/>
<path d="M8.85446 7.94665C8.85446 8.3423 8.59275 8.67692 8.23201 8.78877L8.46396 8.77802C8.71746 8.77802 8.96394 8.69829 9.1665 8.55022L10.5809 7.51828C10.934 7.26087 11.4281 7.29504 11.7401 7.59858C12.0867 7.93573 12.0867 8.48188 11.7401 8.81845L10.5265 9.99903C10.1998 10.3168 9.78297 10.5338 9.32984 10.6221L7.61448 10.9558C7.27434 11.0219 6.92366 11.0139 6.58703 10.9319L5.0356 10.5549C4.85001 10.5093 4.65974 10.4865 4.4683 10.4865C4.26505 10.4865 4.16343 10.4865 4.08189 10.4574C3.94067 10.407 3.82953 10.2959 3.77911 10.1546C3.75 10.0731 3.75 9.97147 3.75 9.76823V8.05366C3.75 7.91074 3.75 7.83929 3.76835 7.77344C3.78461 7.7151 3.81132 7.6602 3.8472 7.61142C3.8877 7.55635 3.94394 7.51226 4.0564 7.42408L4.6492 6.95932C4.6492 6.95932 5.63158 6.49999 6.17429 6.49999C6.3991 6.49999 6.62274 6.52736 6.84111 6.5815L8.18295 6.91507C8.57754 7.01288 8.85446 7.36566 8.85446 7.77026V7.94665Z" fill="#AE984E"/>
<path fill-rule="evenodd" clip-rule="evenodd" d="M1.73677 6.49999C1.74117 6.49999 1.74559 6.5 1.75 6.5C1.75442 6.5 1.75883 6.49999 1.76324 6.49999C1.86826 6.49998 1.97057 6.49997 2.05762 6.50591C2.1528 6.51241 2.26566 6.52764 2.38269 6.57612C2.62771 6.67761 2.82239 6.87228 2.92388 7.11731C2.97235 7.23433 2.98759 7.3472 2.99408 7.44238C3.00002 7.52942 3.00001 7.63173 3 7.73676C3 7.74116 3 7.74558 3 7.74999L3 10.2632C3.00001 10.3683 3.00002 10.4706 2.99408 10.5576C2.98759 10.6528 2.97235 10.7657 2.92388 10.8827C2.82239 11.1277 2.62771 11.3224 2.38268 11.4239C2.26566 11.4723 2.1528 11.4876 2.05761 11.4941C1.97057 11.5 1.86826 11.5 1.76324 11.5H1.73676C1.63174 11.5 1.52943 11.5 1.44239 11.4941C1.3472 11.4876 1.23434 11.4723 1.11732 11.4239C0.87229 11.3224 0.677616 11.1277 0.576122 10.8827C0.52765 10.7657 0.512413 10.6528 0.505919 10.5576C0.49998 10.4706 0.49999 10.3683 0.500001 10.2632L0.500002 7.75C0.500002 7.74558 0.500001 7.74116 0.500001 7.73676C0.49999 7.63173 0.49998 7.52942 0.505919 7.44238C0.512414 7.3472 0.52765 7.23433 0.576122 7.11731C0.677616 6.87228 0.87229 6.67761 1.11732 6.57612C1.23434 6.52764 1.3472 6.51241 1.44239 6.50591C1.52943 6.49997 1.63174 6.49998 1.73677 6.49999Z" fill="#AE984E"/>
</svg>
