<svg width="12" height="12" viewBox="0 0 12 12" fill="none" xmlns="http://www.w3.org/2000/svg">
<path d="M6.42973 7.87439C6.27706 8.00173 6.1221 8.10506 6 8.17894C5.8779 8.10506 5.72294 8.00173 5.57027 7.87439C5.22178 7.5837 5 7.26541 5 6.9625V6.06356L5.76181 5.7912C5.9156 5.73611 6.08417 5.73624 6.23796 5.79133L7 6.06363V6.9625C7 7.26541 6.77823 7.5837 6.42973 7.87439Z" fill="#AE984E"/>
<path fill-rule="evenodd" clip-rule="evenodd" d="M0.5 3.08084V8.12066C0.499995 8.52313 0.49999 8.85532 0.522098 9.12591C0.545061 9.40696 0.594343 9.66531 0.717988 9.90798C0.909735 10.2843 1.2157 10.5903 1.59202 10.782C1.83469 10.9057 2.09304 10.9549 2.37409 10.9779C2.64468 11 2.97687 11 3.37935 11H8.62065C9.02313 11 9.35532 11 9.62591 10.9779C9.90696 10.9549 10.1653 10.9057 10.408 10.782C10.7843 10.5903 11.0903 10.2843 11.282 9.90798C11.4057 9.66531 11.4549 9.40696 11.4779 9.12591C11.5 8.85532 11.5 8.52314 11.5 8.12066V5.87934C11.5 5.47686 11.5 5.14468 11.4779 4.87409C11.4549 4.59304 11.4057 4.33469 11.282 4.09202C11.0903 3.7157 10.7843 3.40973 10.408 3.21799C10.1653 3.09434 9.90696 3.04506 9.62591 3.0221C9.35532 2.99999 9.02314 2.99999 8.62065 3H6.80897L6.36168 2.10532C6.22931 1.83969 6.1129 1.6061 5.93155 1.42848C5.7727 1.27291 5.58126 1.15459 5.37107 1.08209C5.1311 0.999317 4.87011 0.999661 4.57333 1.00005L2.58073 1.00011C2.31715 1.0001 2.08977 1.00009 1.90249 1.01539C1.70482 1.03154 1.50821 1.0672 1.31902 1.1636C1.03677 1.30741 0.807302 1.53688 0.663492 1.81912C0.567095 2.00831 0.531437 2.20492 0.515286 2.40259C0.499985 2.58987 0.499992 2.81728 0.5 3.08084ZM5.045 2.02744C4.98469 2.00663 4.90635 2.00011 4.51115 2.00011H2.6C2.31173 2.00011 2.12559 2.0005 1.98392 2.01207C1.84809 2.02317 1.79773 2.04201 1.77301 2.0546C1.67893 2.10254 1.60244 2.17903 1.5545 2.27311C1.5419 2.29783 1.52306 2.34819 1.51197 2.48403C1.50179 2.60858 1.50026 2.76751 1.50004 3L5.69093 3L5.49502 2.60817C5.31828 2.25469 5.27741 2.18754 5.23183 2.1429C5.17888 2.09104 5.11507 2.0516 5.045 2.02744ZM7.66824 5.24048L6.57481 4.84977C6.20319 4.71675 5.79621 4.71673 5.42459 4.84977L4.33167 5.24051C4.13276 5.31163 4 5.50008 4 5.71133V6.9625C4 7.73201 4.52823 8.30741 4.92973 8.64232C5.14293 8.82015 5.35356 8.95793 5.50971 9.05096C5.59939 9.10439 5.69038 9.15602 5.7846 9.20111C5.92068 9.26597 6.07904 9.2661 6.21513 9.20123C6.21513 9.20123 6.29149 9.1694 6.49029 9.05096C6.64644 8.95793 6.85707 8.82015 7.07027 8.64232C7.47178 8.30741 8 7.73201 8 6.9625V5.71133C8 5.50005 7.8672 5.31157 7.66824 5.24048Z" fill="#AE984E"/>
</svg>
