<svg width="80" height="73" viewBox="0 0 80 73" fill="none" xmlns="http://www.w3.org/2000/svg">
<g opacity="0.125">
<path d="M28.3495 56.1951C24.5437 56.1951 21.5146 54.9488 19.2621 52.456C17.0874 49.8854 16 46.6137 16 42.6409C16 36.2533 17.8252 30.7616 21.4757 26.1656C25.2039 21.5697 30.0583 18.1811 36.0388 16L37.6699 19.2717C32.7767 21.0633 28.8155 23.6729 25.7864 27.1004C22.835 30.45 21.3592 33.9943 21.3592 37.7334C21.3592 38.2787 21.5146 38.785 21.8252 39.2524C22.2136 39.6419 22.7184 39.8366 23.3398 39.8366C23.9612 39.8366 24.8932 39.525 26.1359 38.9019C27.534 38.2008 28.8544 37.8503 30.0971 37.8503C32.2718 37.8503 34.1748 38.5903 35.8058 40.0703C37.5146 41.5504 38.3689 43.6147 38.3689 46.2632C38.3689 49.3791 37.3592 51.8329 35.3398 53.6245C33.3204 55.3382 30.9903 56.1951 28.3495 56.1951ZM53.9806 56.1951C50.1748 56.1951 47.1456 54.9488 44.8932 52.456C42.7184 49.8854 41.6311 46.6137 41.6311 42.6409C41.6311 36.2533 43.4563 30.7616 47.1068 26.1656C50.835 21.5697 55.6893 18.1811 61.6699 16L63.301 19.2717C58.4078 21.0633 54.4466 23.6729 51.4175 27.1004C48.466 30.45 46.9903 33.9943 46.9903 37.7334C46.9903 38.2787 47.1456 38.785 47.4563 39.2524C47.8447 39.6419 48.3495 39.8366 48.9709 39.8366C49.5922 39.8366 50.5243 39.525 51.767 38.9019C53.165 38.2008 54.4854 37.8503 55.7282 37.8503C57.9029 37.8503 59.8058 38.5903 61.4369 40.0703C63.1456 41.5504 64 43.6147 64 46.2632C64 49.3791 62.9903 51.8329 60.9709 53.6245C58.9515 55.3382 56.6214 56.1951 53.9806 56.1951Z" fill="#AE984E"/>
</g>
</svg>
