<svg width="80" height="72" viewBox="0 0 80 72" fill="none" xmlns="http://www.w3.org/2000/svg">
<g opacity="0.125">
<path d="M51.6505 16C55.4563 16 58.4854 17.2464 60.7379 19.7391C62.9126 22.3097 64 25.5814 64 29.5542C64 35.9418 62.1748 41.4335 58.5243 46.0295C54.7961 50.6254 49.9417 54.014 43.9612 56.1951L42.3301 52.9234C47.2233 51.1318 51.1845 48.5222 54.2136 45.0947C57.165 41.7451 58.6408 38.2008 58.6408 34.4617C58.6408 33.9164 58.4854 33.4101 58.1748 32.9427C57.7864 32.5532 57.2816 32.3585 56.6602 32.3585C56.0388 32.3585 55.1068 32.6701 53.8641 33.2933C52.466 33.9943 51.1456 34.3449 49.9029 34.3449C47.7282 34.3449 45.8252 33.6048 44.1942 32.1248C42.4854 30.6447 41.6311 28.5804 41.6311 25.9319C41.6311 22.816 42.6408 20.3623 44.6602 18.5706C46.6796 16.8569 49.0097 16 51.6505 16ZM26.0194 16C29.8252 16 32.8544 17.2464 35.1068 19.7391C37.2816 22.3097 38.3689 25.5814 38.3689 29.5542C38.3689 35.9418 36.5437 41.4335 32.8932 46.0295C29.165 50.6254 24.3107 54.014 18.3301 56.1951L16.699 52.9234C21.5922 51.1318 25.5534 48.5222 28.5825 45.0947C31.534 41.7451 33.0097 38.2008 33.0097 34.4617C33.0097 33.9164 32.8544 33.4101 32.5437 32.9427C32.1553 32.5532 31.6505 32.3585 31.0291 32.3585C30.4078 32.3585 29.4757 32.6701 28.233 33.2933C26.835 33.9943 25.5146 34.3449 24.2718 34.3449C22.0971 34.3449 20.1942 33.6048 18.5631 32.1248C16.8544 30.6447 16 28.5804 16 25.9319C16 22.816 17.0097 20.3623 19.0291 18.5706C21.0485 16.8569 23.3786 16 26.0194 16Z" fill="#AE984E"/>
</g>
</svg>
