<svg width="12" height="12" viewBox="0 0 12 12" fill="none" xmlns="http://www.w3.org/2000/svg">
<path fill-rule="evenodd" clip-rule="evenodd" d="M8.02786 10.9403C6.43125 10.4871 4.92478 9.63196 3.66896 8.37614C2.41314 7.12032 1.55797 5.61385 1.1048 4.01724C1.10211 4.00778 1.09945 3.99839 1.0968 3.98909C1.02305 3.72958 0.965855 3.52834 0.965033 3.2524C0.964094 2.93701 1.06685 2.54189 1.22131 2.26692C1.48695 1.79403 2.05734 1.18801 2.55 0.938821C2.97567 0.723518 3.47837 0.723518 3.90404 0.938821C4.32516 1.15182 4.79415 1.6286 5.05561 2.03073C5.37885 2.5279 5.37885 3.16884 5.05561 3.666C4.96899 3.79923 4.84552 3.92249 4.70219 4.06557C4.65756 4.11013 4.60844 4.14232 4.64106 4.21027C4.96497 4.88491 5.40672 5.5177 5.96706 6.07804C6.5274 6.63838 7.16019 7.08013 7.83483 7.40404C7.90518 7.43781 7.9329 7.38961 7.97953 7.3429C8.12262 7.19957 8.24587 7.07611 8.3791 6.98949C8.87626 6.66625 9.5172 6.66625 10.0144 6.98949C10.4057 7.24395 10.8949 7.72323 11.1063 8.14106C11.3216 8.56673 11.3216 9.06943 11.1063 9.4951C10.8571 9.98776 10.2511 10.5581 9.77818 10.8238C9.50321 10.9783 9.10809 11.081 8.7927 11.0801C8.51676 11.0792 8.31552 11.0221 8.05602 10.9483C8.04671 10.9457 8.03732 10.943 8.02786 10.9403Z" fill="#AE984E"/>
</svg>
